<svg xmlns="http://www.w3.org/2000/svg" version="1.1" xmlns:xlink="http://www.w3.org/1999/xlink" xmlns:svgjs="http://svgjs.com/svgjs" width="1440" height="560" preserveAspectRatio="none" viewBox="0 0 1440 560"><g mask="url(&quot;#SvgjsMask1002&quot;)" fill="none"><rect width="1440" height="560" x="0" y="0" fill="#0e2a47"></rect><path d="M0,597.812C109.856,578.406,147.661,436.1,242.018,376.587C337.659,316.264,497.429,351.303,549.759,251.066C601.414,152.122,495.155,41.453,474.213,-68.181C454.552,-171.108,492.845,-288.812,430.541,-373.066C367.422,-458.423,253.018,-486.074,149.11,-507.823C51.083,-528.341,-46.279,-510.907,-144.908,-493.512C-255.578,-473.993,-384.862,-482.069,-461.727,-400.089C-538.847,-317.837,-539.971,-189.647,-535.447,-76.986C-531.439,22.83,-476.378,107.784,-437.634,199.861C-397.505,295.228,-380.555,403.432,-304.005,473.04C-221.288,548.257,-110.097,617.26,0,597.812" fill="#0b2239"></path><path d="M1440 864.865C1498.263 857.135 1553.317 844.024 1606.628 819.279 1667.355 791.091 1736.532 768.548 1771.068 711.193 1806.734 651.961 1808.184 576.726 1793.343 509.197 1779.071 444.257 1727.488 398.252 1690.195 343.20500000000004 1647.108 279.605 1627.065 192.74 1557.245 160.699 1486.02 128.01299999999998 1401.405 150.774 1327.467 176.747 1256.085 201.82299999999998 1191.4180000000001 244.73000000000002 1145.932 305.188 1102.201 363.312 1073.219 435.425 1078.252 507.989 1082.913 575.195 1144.13 621.059 1172.09 682.35 1200.066 743.6759999999999 1186.602 829.662 1242.309 867.613 1297.901 905.485 1373.318 873.712 1440 864.865" fill="#113255"></path></g><defs><mask id="SvgjsMask1002"><rect width="1440" height="560" fill="#ffffff"></rect></mask></defs></svg>