<svg xmlns="http://www.w3.org/2000/svg" version="1.1" xmlns:xlink="http://www.w3.org/1999/xlink" xmlns:svgjs="http://svgjs.com/svgjs" width="1440" height="560" preserveAspectRatio="none" viewBox="0 0 1440 560"><g mask="url(&quot;#SvgjsMask1000&quot;)" fill="none"><rect width="1440" height="560" x="0" y="0" fill="#0e2a47"></rect><path d="M0,421.997C94.164,438.784,195.997,481.194,280.744,436.846C366.087,392.186,401.246,288.391,430.618,196.656C457.618,112.329,457.006,23.676,440.91,-63.393C425.312,-147.771,400.947,-234.234,339.828,-294.463C280.626,-352.803,190.236,-354.493,113.383,-386.148C25.245,-422.452,-53.711,-521.264,-145.112,-494.207C-236.555,-467.138,-258.184,-346.825,-303.29,-262.802C-339.025,-196.235,-375.57,-130.137,-381.01,-54.781C-386.213,17.298,-359.689,84.934,-333.246,152.189C-305.377,223.07,-282.22,299.11,-223.026,347.036C-160.811,397.408,-78.807,407.948,0,421.997" fill="#0b2239"></path><path d="M1440 1224.4279999999999C1565.125 1243.071 1693.606 1187.835 1794.109 1111.005 1890.667 1037.191 1953.699 926.1600000000001 1984.108 808.486 2011.6779999999999 701.8 1975.754 594.203 1955.658 485.86 1936.424 382.166 1927.123 276.259 1869.056 188.221 1805.885 92.44600000000003 1721.37 7.913000000000011 1613.908-32.277000000000044 1502.53-73.93200000000002 1373.974-84.19100000000003 1264.44-37.90300000000002 1158.828 6.727999999999952 1098.653 114.26100000000002 1037.56 211.284 984.116 296.158 951.3430000000001 388.467 933.7819999999999 487.217 915.694 588.927 895.655 695.13 934.491 790.858 974.0360000000001 888.336 1067.93 946.222 1147.778 1014.707 1240.667 1094.377 1318.961 1206.394 1440 1224.4279999999999" fill="#113255"></path></g><defs><mask id="SvgjsMask1000"><rect width="1440" height="560" fill="#ffffff"></rect></mask></defs></svg>